<?xml version="1.0" encoding="utf-8"?>
<!-- Generator: Adobe Illustrator 27.5.0, SVG Export Plug-In . SVG Version: 6.00 Build 0)  -->
<svg version="1.1" id="Generate" xmlns="http://www.w3.org/2000/svg" xmlns:xlink="http://www.w3.org/1999/xlink" x="0px" y="0px"
	 viewBox="0 0 4000 4000" style="enable-background:new 0 0 4000 4000;" xml:space="preserve">
<g>
	<g>
		<rect y="0" style="fill:none;" width="4000" height="4000"/>
	</g>
</g>
<g id="Generate_00000084513837187202186360000008075793546117372574_">
	<path d="M3403.885,1863.591c-570.805-65.789-1021.095-516.078-1086.886-1086.884l-7.487-64.96c-2.708-23.495-36.83-23.495-39.538,0
		l-7.487,64.958c-65.791,570.806-516.082,1021.097-1086.888,1086.886l-64.956,7.487c-23.495,2.708-23.495,36.83,0,39.538
		l64.96,7.487c570.805,65.792,1021.094,516.082,1086.885,1086.887l7.487,64.957c2.708,23.495,36.83,23.495,39.538,0l7.487-64.956
		c65.79-570.806,516.08-1021.096,1086.885-1086.888l64.959-7.487c23.495-2.708,23.495-36.83,0-39.538L3403.885,1863.591z"/>
	<path style="fill:#4C4C4C;" d="M1521.826,2710.451c-249.057-28.706-445.53-225.178-474.236-474.236l-3.267-28.344
		c-1.182-10.251-16.07-10.251-17.251,0l-3.267,28.343c-28.706,249.058-225.18,445.531-474.238,474.237l-28.342,3.267
		c-10.251,1.182-10.251,16.07,0,17.251l28.343,3.267c249.057,28.707,445.53,225.18,474.236,474.237l3.267,28.342
		c1.182,10.251,16.07,10.251,17.251,0l3.267-28.342c28.706-249.057,225.179-445.531,474.236-474.237l28.343-3.267
		c10.252-1.182,10.251-16.07,0-17.251L1521.826,2710.451z"/>
	<path style="fill:#7A7A7A;" d="M3440.513,1096.274c-156.623-18.052-280.178-141.607-298.23-298.23l-2.055-17.824
		c-0.743-6.447-10.105-6.447-10.849,0l-2.054,17.824c-18.052,156.624-141.608,280.179-298.231,298.231l-17.823,2.054
		c-6.447,0.743-6.447,10.106,0,10.849l17.824,2.054c156.623,18.052,280.178,141.608,298.23,298.231l2.054,17.823
		c0.743,6.447,10.106,6.447,10.849,0l2.054-17.823c18.052-156.623,141.607-280.179,298.23-298.231l17.824-2.054
		c6.447-0.743,6.447-10.106,0-10.849L3440.513,1096.274z"/>
	<path style="fill:#BFBFBF;" d="M1979.406,3082.596c-104.127-12.001-186.269-94.143-198.27-198.27l-1.366-11.85
		c-0.494-4.286-6.719-4.286-7.213,0l-1.366,11.85c-12.002,104.127-94.144,186.269-198.271,198.27l-11.849,1.366
		c-4.286,0.494-4.286,6.719,0,7.212l11.85,1.366c104.127,12.002,186.269,94.144,198.27,198.271l1.366,11.849
		c0.494,4.286,6.719,4.286,7.213,0l1.366-11.849c12.001-104.127,94.143-186.269,198.27-198.271l11.85-1.366
		c4.286-0.494,4.286-6.719,0-7.212L1979.406,3082.596z"/>
</g>
</svg>
